<mxfile host="Electron" modified="2024-04-26T17:18:19.552Z" agent="Mozilla/5.0 (X11; Linux x86_64) AppleWebKit/537.36 (KHTML, like Gecko) draw.io/24.2.5 Chrome/120.0.6099.109 Electron/28.1.0 Safari/537.36" etag="cK7cfAuwA_tWDhVg682T" version="24.2.5" type="device">
  <diagram name="Página-1" id="xVrf8d9cAuPvjDPpBpi5">
    <mxGraphModel dx="1257" dy="687" grid="1" gridSize="10" guides="1" tooltips="1" connect="1" arrows="1" fold="1" page="1" pageScale="1" pageWidth="1169" pageHeight="827" math="0" shadow="0">
      <root>
        <mxCell id="0" />
        <mxCell id="1" parent="0" />
        <mxCell id="tdXhZO9hacQsB6wRN4kg-78" value="" style="rounded=0;whiteSpace=wrap;html=1;shadow=0;opacity=40;fillColor=#d5e8d4;strokeColor=#82b366;" vertex="1" parent="1">
          <mxGeometry x="580" y="598" width="200" height="200" as="geometry" />
        </mxCell>
        <mxCell id="tdXhZO9hacQsB6wRN4kg-19" style="edgeStyle=orthogonalEdgeStyle;rounded=0;orthogonalLoop=1;jettySize=auto;html=1;exitX=1;exitY=0.5;exitDx=0;exitDy=0;entryX=0;entryY=0.5;entryDx=0;entryDy=0;" edge="1" parent="1" source="cn9PxRdH5zubQQloBJOQ-9" target="GbKh0f3Iw_0Q1egA7rOd-8">
          <mxGeometry relative="1" as="geometry" />
        </mxCell>
        <mxCell id="cn9PxRdH5zubQQloBJOQ-9" value="Crear un grafo de red con los enlaces disponibles" style="rounded=0;whiteSpace=wrap;html=1;fillColor=#dae8fc;strokeColor=none;" parent="1" vertex="1">
          <mxGeometry x="190" y="80" width="140" height="50" as="geometry" />
        </mxCell>
        <mxCell id="GbKh0f3Iw_0Q1egA7rOd-12" style="edgeStyle=orthogonalEdgeStyle;rounded=0;orthogonalLoop=1;jettySize=auto;html=1;exitX=0.5;exitY=1;exitDx=0;exitDy=0;entryX=0.5;entryY=0;entryDx=0;entryDy=0;" parent="1" source="GbKh0f3Iw_0Q1egA7rOd-7" target="GbKh0f3Iw_0Q1egA7rOd-9" edge="1">
          <mxGeometry relative="1" as="geometry">
            <Array as="points">
              <mxPoint x="600" y="155" />
              <mxPoint x="430" y="155" />
            </Array>
          </mxGeometry>
        </mxCell>
        <mxCell id="tdXhZO9hacQsB6wRN4kg-61" value="&lt;font style=&quot;font-size: 14px;&quot;&gt;SI&lt;/font&gt;" style="edgeLabel;html=1;align=center;verticalAlign=middle;resizable=0;points=[];" vertex="1" connectable="0" parent="GbKh0f3Iw_0Q1egA7rOd-12">
          <mxGeometry x="0.0537" y="1" relative="1" as="geometry">
            <mxPoint as="offset" />
          </mxGeometry>
        </mxCell>
        <mxCell id="tdXhZO9hacQsB6wRN4kg-63" style="edgeStyle=orthogonalEdgeStyle;rounded=0;orthogonalLoop=1;jettySize=auto;html=1;exitX=1;exitY=0.5;exitDx=0;exitDy=0;entryX=0;entryY=0.5;entryDx=0;entryDy=0;" edge="1" parent="1" source="GbKh0f3Iw_0Q1egA7rOd-7" target="tdXhZO9hacQsB6wRN4kg-62">
          <mxGeometry relative="1" as="geometry" />
        </mxCell>
        <mxCell id="tdXhZO9hacQsB6wRN4kg-64" value="&lt;font style=&quot;font-size: 14px;&quot;&gt;NO&lt;/font&gt;" style="edgeLabel;html=1;align=center;verticalAlign=middle;resizable=0;points=[];" vertex="1" connectable="0" parent="tdXhZO9hacQsB6wRN4kg-63">
          <mxGeometry x="-0.2" y="1" relative="1" as="geometry">
            <mxPoint as="offset" />
          </mxGeometry>
        </mxCell>
        <mxCell id="GbKh0f3Iw_0Q1egA7rOd-7" value="Existe&lt;span style=&quot;background-color: initial;&quot;&gt;&amp;nbsp;camino más corto?&lt;/span&gt;" style="rhombus;whiteSpace=wrap;html=1;align=center;spacingTop=22;spacingBottom=6;spacingLeft=6;spacingRight=6;spacing=8;" parent="1" vertex="1">
          <mxGeometry x="530" y="75" width="140" height="60" as="geometry" />
        </mxCell>
        <mxCell id="tdXhZO9hacQsB6wRN4kg-22" style="edgeStyle=orthogonalEdgeStyle;rounded=0;orthogonalLoop=1;jettySize=auto;html=1;exitX=1;exitY=0.5;exitDx=0;exitDy=0;entryX=0;entryY=0.5;entryDx=0;entryDy=0;" edge="1" parent="1" source="GbKh0f3Iw_0Q1egA7rOd-8" target="GbKh0f3Iw_0Q1egA7rOd-7">
          <mxGeometry relative="1" as="geometry" />
        </mxCell>
        <mxCell id="GbKh0f3Iw_0Q1egA7rOd-8" value="Calcular camino más corto entre origen y destino" style="rounded=0;whiteSpace=wrap;html=1;fillColor=#dae8fc;strokeColor=none;" parent="1" vertex="1">
          <mxGeometry x="360" y="80" width="140" height="50" as="geometry" />
        </mxCell>
        <mxCell id="tdXhZO9hacQsB6wRN4kg-51" style="edgeStyle=orthogonalEdgeStyle;rounded=0;orthogonalLoop=1;jettySize=auto;html=1;exitX=1;exitY=0.5;exitDx=0;exitDy=0;entryX=0;entryY=0.5;entryDx=0;entryDy=0;" edge="1" parent="1" source="GbKh0f3Iw_0Q1egA7rOd-9" target="GbKh0f3Iw_0Q1egA7rOd-10">
          <mxGeometry relative="1" as="geometry" />
        </mxCell>
        <mxCell id="GbKh0f3Iw_0Q1egA7rOd-9" value="Añadir conexiones clásicas entre nodos del camino" style="rounded=0;whiteSpace=wrap;html=1;fillColor=#dae8fc;strokeColor=none;" parent="1" vertex="1">
          <mxGeometry x="360" y="170" width="140" height="50" as="geometry" />
        </mxCell>
        <mxCell id="tdXhZO9hacQsB6wRN4kg-52" style="edgeStyle=orthogonalEdgeStyle;rounded=0;orthogonalLoop=1;jettySize=auto;html=1;exitX=1;exitY=0.5;exitDx=0;exitDy=0;entryX=0;entryY=0.5;entryDx=0;entryDy=0;" edge="1" parent="1" source="GbKh0f3Iw_0Q1egA7rOd-10" target="GbKh0f3Iw_0Q1egA7rOd-15">
          <mxGeometry relative="1" as="geometry" />
        </mxCell>
        <mxCell id="GbKh0f3Iw_0Q1egA7rOd-10" value="Añadir protocolo de simulación de fidelidades E2E" style="rounded=0;whiteSpace=wrap;html=1;fillColor=#f8cecc;strokeColor=none;" parent="1" vertex="1">
          <mxGeometry x="540" y="170" width="140" height="50" as="geometry" />
        </mxCell>
        <mxCell id="tdXhZO9hacQsB6wRN4kg-59" style="edgeStyle=orthogonalEdgeStyle;rounded=0;orthogonalLoop=1;jettySize=auto;html=1;exitX=0.5;exitY=0;exitDx=0;exitDy=0;entryX=0.5;entryY=1;entryDx=0;entryDy=0;" edge="1" parent="1" source="GbKh0f3Iw_0Q1egA7rOd-15" target="tdXhZO9hacQsB6wRN4kg-1">
          <mxGeometry relative="1" as="geometry">
            <Array as="points">
              <mxPoint x="790" y="150" />
              <mxPoint x="940" y="150" />
            </Array>
          </mxGeometry>
        </mxCell>
        <mxCell id="tdXhZO9hacQsB6wRN4kg-60" value="&lt;font style=&quot;font-size: 14px;&quot;&gt;SI&lt;/font&gt;" style="edgeLabel;html=1;align=center;verticalAlign=middle;resizable=0;points=[];" vertex="1" connectable="0" parent="tdXhZO9hacQsB6wRN4kg-59">
          <mxGeometry x="-0.0667" y="-1" relative="1" as="geometry">
            <mxPoint as="offset" />
          </mxGeometry>
        </mxCell>
        <mxCell id="GbKh0f3Iw_0Q1egA7rOd-15" value="¿Simulación finalizada?" style="rhombus;whiteSpace=wrap;html=1;align=center;spacingTop=22;spacingBottom=6;spacingLeft=6;spacingRight=6;spacing=8;" parent="1" vertex="1">
          <mxGeometry x="720" y="165" width="140" height="60" as="geometry" />
        </mxCell>
        <mxCell id="tdXhZO9hacQsB6wRN4kg-1" value="&lt;div&gt;&lt;span style=&quot;background-color: initial;&quot;&gt;Camino calculado&lt;/span&gt;&lt;br&gt;&lt;/div&gt;" style="ellipse;whiteSpace=wrap;html=1;fillColor=#f5f5f5;fontColor=#333333;strokeColor=none;" vertex="1" parent="1">
          <mxGeometry x="880" y="75" width="120" height="60" as="geometry" />
        </mxCell>
        <mxCell id="tdXhZO9hacQsB6wRN4kg-40" style="edgeStyle=orthogonalEdgeStyle;rounded=0;orthogonalLoop=1;jettySize=auto;html=1;exitX=0.5;exitY=1;exitDx=0;exitDy=0;entryX=0.5;entryY=0;entryDx=0;entryDy=0;" edge="1" parent="1" source="tdXhZO9hacQsB6wRN4kg-5" target="tdXhZO9hacQsB6wRN4kg-6">
          <mxGeometry relative="1" as="geometry" />
        </mxCell>
        <mxCell id="tdXhZO9hacQsB6wRN4kg-5" value="Iniciar protocolo" style="rounded=0;whiteSpace=wrap;html=1;fillColor=#dae8fc;strokeColor=none;" vertex="1" parent="1">
          <mxGeometry x="360" y="290" width="140" height="50" as="geometry" />
        </mxCell>
        <mxCell id="tdXhZO9hacQsB6wRN4kg-53" style="edgeStyle=orthogonalEdgeStyle;rounded=0;orthogonalLoop=1;jettySize=auto;html=1;exitX=1;exitY=0.5;exitDx=0;exitDy=0;entryX=0;entryY=0.5;entryDx=0;entryDy=0;" edge="1" parent="1" source="tdXhZO9hacQsB6wRN4kg-6" target="tdXhZO9hacQsB6wRN4kg-8">
          <mxGeometry relative="1" as="geometry" />
        </mxCell>
        <mxCell id="tdXhZO9hacQsB6wRN4kg-6" value="Realizar simulación" style="rounded=0;whiteSpace=wrap;html=1;fillColor=#dae8fc;strokeColor=none;" vertex="1" parent="1">
          <mxGeometry x="360" y="370" width="140" height="50" as="geometry" />
        </mxCell>
        <mxCell id="tdXhZO9hacQsB6wRN4kg-28" style="edgeStyle=orthogonalEdgeStyle;rounded=0;orthogonalLoop=1;jettySize=auto;html=1;exitX=0.5;exitY=1;exitDx=0;exitDy=0;entryX=0.5;entryY=0;entryDx=0;entryDy=0;" edge="1" parent="1" source="tdXhZO9hacQsB6wRN4kg-8" target="tdXhZO9hacQsB6wRN4kg-23">
          <mxGeometry relative="1" as="geometry" />
        </mxCell>
        <mxCell id="tdXhZO9hacQsB6wRN4kg-29" value="NO" style="edgeLabel;html=1;align=center;verticalAlign=middle;resizable=0;points=[];" vertex="1" connectable="0" parent="tdXhZO9hacQsB6wRN4kg-28">
          <mxGeometry x="-0.2" y="1" relative="1" as="geometry">
            <mxPoint as="offset" />
          </mxGeometry>
        </mxCell>
        <mxCell id="tdXhZO9hacQsB6wRN4kg-54" style="edgeStyle=orthogonalEdgeStyle;rounded=0;orthogonalLoop=1;jettySize=auto;html=1;exitX=1;exitY=0.5;exitDx=0;exitDy=0;entryX=0;entryY=0.5;entryDx=0;entryDy=0;" edge="1" parent="1" source="tdXhZO9hacQsB6wRN4kg-8" target="tdXhZO9hacQsB6wRN4kg-11">
          <mxGeometry relative="1" as="geometry" />
        </mxCell>
        <mxCell id="tdXhZO9hacQsB6wRN4kg-55" value="&lt;font style=&quot;font-size: 14px;&quot;&gt;SI&lt;/font&gt;" style="edgeLabel;html=1;align=center;verticalAlign=middle;resizable=0;points=[];" vertex="1" connectable="0" parent="tdXhZO9hacQsB6wRN4kg-54">
          <mxGeometry x="-0.15" y="-3" relative="1" as="geometry">
            <mxPoint as="offset" />
          </mxGeometry>
        </mxCell>
        <mxCell id="tdXhZO9hacQsB6wRN4kg-8" value="Tiempo medio de cada medida superior al máximo permitido?" style="rhombus;whiteSpace=wrap;html=1;align=center;spacingTop=22;spacingBottom=6;spacingLeft=6;spacingRight=6;spacing=8;" vertex="1" parent="1">
          <mxGeometry x="600" y="345" width="160" height="100" as="geometry" />
        </mxCell>
        <mxCell id="tdXhZO9hacQsB6wRN4kg-56" style="edgeStyle=orthogonalEdgeStyle;rounded=0;orthogonalLoop=1;jettySize=auto;html=1;exitX=0.5;exitY=0;exitDx=0;exitDy=0;entryX=1;entryY=0.5;entryDx=0;entryDy=0;" edge="1" parent="1" source="tdXhZO9hacQsB6wRN4kg-10" target="GbKh0f3Iw_0Q1egA7rOd-15">
          <mxGeometry relative="1" as="geometry">
            <Array as="points">
              <mxPoint x="910" y="195" />
            </Array>
          </mxGeometry>
        </mxCell>
        <mxCell id="tdXhZO9hacQsB6wRN4kg-10" value="Liberar conexiones clásicas y cuánticas utilizadas" style="rounded=0;whiteSpace=wrap;html=1;fillColor=#dae8fc;strokeColor=none;" vertex="1" parent="1">
          <mxGeometry x="840" y="280" width="140" height="50" as="geometry" />
        </mxCell>
        <mxCell id="tdXhZO9hacQsB6wRN4kg-35" style="edgeStyle=orthogonalEdgeStyle;rounded=0;orthogonalLoop=1;jettySize=auto;html=1;exitX=0.5;exitY=0;exitDx=0;exitDy=0;entryX=0.5;entryY=1;entryDx=0;entryDy=0;" edge="1" parent="1" source="tdXhZO9hacQsB6wRN4kg-11" target="tdXhZO9hacQsB6wRN4kg-10">
          <mxGeometry relative="1" as="geometry" />
        </mxCell>
        <mxCell id="tdXhZO9hacQsB6wRN4kg-11" value="Marcar petición como rechazada&lt;div&gt;&lt;b&gt;Simulación finalizada&lt;/b&gt;&lt;/div&gt;" style="rounded=0;whiteSpace=wrap;html=1;fillColor=#dae8fc;strokeColor=none;" vertex="1" parent="1">
          <mxGeometry x="840" y="370" width="140" height="50" as="geometry" />
        </mxCell>
        <mxCell id="tdXhZO9hacQsB6wRN4kg-57" style="edgeStyle=orthogonalEdgeStyle;rounded=0;orthogonalLoop=1;jettySize=auto;html=1;exitX=1;exitY=0.5;exitDx=0;exitDy=0;entryX=0;entryY=0.5;entryDx=0;entryDy=0;" edge="1" parent="1" source="tdXhZO9hacQsB6wRN4kg-23" target="tdXhZO9hacQsB6wRN4kg-24">
          <mxGeometry relative="1" as="geometry" />
        </mxCell>
        <mxCell id="tdXhZO9hacQsB6wRN4kg-66" value="&lt;font style=&quot;font-size: 14px;&quot;&gt;SI&lt;/font&gt;" style="edgeLabel;html=1;align=center;verticalAlign=middle;resizable=0;points=[];" vertex="1" connectable="0" parent="tdXhZO9hacQsB6wRN4kg-57">
          <mxGeometry x="-0.175" y="2" relative="1" as="geometry">
            <mxPoint as="offset" />
          </mxGeometry>
        </mxCell>
        <mxCell id="tdXhZO9hacQsB6wRN4kg-69" style="edgeStyle=orthogonalEdgeStyle;rounded=0;orthogonalLoop=1;jettySize=auto;html=1;exitX=0.5;exitY=1;exitDx=0;exitDy=0;entryX=0.5;entryY=0;entryDx=0;entryDy=0;" edge="1" parent="1" target="tdXhZO9hacQsB6wRN4kg-26">
          <mxGeometry relative="1" as="geometry">
            <mxPoint x="680" y="583" as="sourcePoint" />
          </mxGeometry>
        </mxCell>
        <mxCell id="tdXhZO9hacQsB6wRN4kg-77" value="&lt;font style=&quot;font-size: 14px;&quot;&gt;NO&lt;/font&gt;" style="edgeLabel;html=1;align=center;verticalAlign=middle;resizable=0;points=[];" vertex="1" connectable="0" parent="tdXhZO9hacQsB6wRN4kg-69">
          <mxGeometry x="-0.12" y="-1" relative="1" as="geometry">
            <mxPoint as="offset" />
          </mxGeometry>
        </mxCell>
        <mxCell id="tdXhZO9hacQsB6wRN4kg-81" value="" style="edgeStyle=orthogonalEdgeStyle;rounded=0;orthogonalLoop=1;jettySize=auto;html=1;" edge="1" parent="1" source="tdXhZO9hacQsB6wRN4kg-23" target="tdXhZO9hacQsB6wRN4kg-26">
          <mxGeometry relative="1" as="geometry" />
        </mxCell>
        <mxCell id="tdXhZO9hacQsB6wRN4kg-23" value="Fidelidad media superior a la solicitada?" style="rhombus;whiteSpace=wrap;html=1;align=center;spacingTop=22;spacingBottom=6;spacingLeft=6;spacingRight=6;spacing=8;" vertex="1" parent="1">
          <mxGeometry x="600" y="475" width="160" height="100" as="geometry" />
        </mxCell>
        <mxCell id="tdXhZO9hacQsB6wRN4kg-58" style="edgeStyle=orthogonalEdgeStyle;rounded=0;orthogonalLoop=1;jettySize=auto;html=1;exitX=1;exitY=0.5;exitDx=0;exitDy=0;entryX=1;entryY=0.5;entryDx=0;entryDy=0;" edge="1" parent="1" source="tdXhZO9hacQsB6wRN4kg-24" target="GbKh0f3Iw_0Q1egA7rOd-15">
          <mxGeometry relative="1" as="geometry" />
        </mxCell>
        <mxCell id="tdXhZO9hacQsB6wRN4kg-24" value="Marcar petición como aceptada y registrar detalles del camino&lt;div&gt;&lt;b&gt;Simulación finalizada&lt;/b&gt;&lt;/div&gt;" style="rounded=0;whiteSpace=wrap;html=1;fillColor=#dae8fc;strokeColor=none;" vertex="1" parent="1">
          <mxGeometry x="840" y="495" width="140" height="60" as="geometry" />
        </mxCell>
        <mxCell id="tdXhZO9hacQsB6wRN4kg-67" style="edgeStyle=orthogonalEdgeStyle;rounded=0;orthogonalLoop=1;jettySize=auto;html=1;exitX=1;exitY=0.5;exitDx=0;exitDy=0;entryX=0.5;entryY=1;entryDx=0;entryDy=0;" edge="1" parent="1" source="tdXhZO9hacQsB6wRN4kg-26" target="tdXhZO9hacQsB6wRN4kg-11">
          <mxGeometry relative="1" as="geometry">
            <Array as="points">
              <mxPoint x="820" y="658" />
              <mxPoint x="820" y="450" />
              <mxPoint x="910" y="450" />
            </Array>
          </mxGeometry>
        </mxCell>
        <mxCell id="tdXhZO9hacQsB6wRN4kg-68" value="&lt;font style=&quot;font-size: 14px;&quot;&gt;NO&lt;/font&gt;" style="edgeLabel;html=1;align=center;verticalAlign=middle;resizable=0;points=[];" vertex="1" connectable="0" parent="tdXhZO9hacQsB6wRN4kg-67">
          <mxGeometry x="-0.8263" y="-2" relative="1" as="geometry">
            <mxPoint as="offset" />
          </mxGeometry>
        </mxCell>
        <mxCell id="tdXhZO9hacQsB6wRN4kg-74" style="edgeStyle=orthogonalEdgeStyle;rounded=0;orthogonalLoop=1;jettySize=auto;html=1;exitX=0.5;exitY=1;exitDx=0;exitDy=0;entryX=0.5;entryY=0;entryDx=0;entryDy=0;" edge="1" parent="1" source="tdXhZO9hacQsB6wRN4kg-26" target="tdXhZO9hacQsB6wRN4kg-44">
          <mxGeometry relative="1" as="geometry" />
        </mxCell>
        <mxCell id="tdXhZO9hacQsB6wRN4kg-75" value="&lt;font style=&quot;font-size: 14px;&quot;&gt;SI&lt;/font&gt;" style="edgeLabel;html=1;align=center;verticalAlign=middle;resizable=0;points=[];" vertex="1" connectable="0" parent="tdXhZO9hacQsB6wRN4kg-74">
          <mxGeometry x="-0.2667" y="3" relative="1" as="geometry">
            <mxPoint as="offset" />
          </mxGeometry>
        </mxCell>
        <mxCell id="tdXhZO9hacQsB6wRN4kg-26" value="Hay un segundo enlace disponible para realizar purificación?" style="rhombus;whiteSpace=wrap;html=1;align=center;spacingTop=22;spacingBottom=6;spacingLeft=6;spacingRight=6;spacing=8;" vertex="1" parent="1">
          <mxGeometry x="600" y="608" width="160" height="100" as="geometry" />
        </mxCell>
        <mxCell id="tdXhZO9hacQsB6wRN4kg-39" style="edgeStyle=orthogonalEdgeStyle;rounded=0;orthogonalLoop=1;jettySize=auto;html=1;exitX=0.5;exitY=1;exitDx=0;exitDy=0;" edge="1" parent="1" source="GbKh0f3Iw_0Q1egA7rOd-15">
          <mxGeometry relative="1" as="geometry">
            <mxPoint x="430" y="290" as="targetPoint" />
            <Array as="points">
              <mxPoint x="790" y="258" />
              <mxPoint x="430" y="258" />
              <mxPoint x="430" y="287" />
            </Array>
          </mxGeometry>
        </mxCell>
        <mxCell id="tdXhZO9hacQsB6wRN4kg-76" value="&lt;font style=&quot;font-size: 14px;&quot;&gt;NO&lt;/font&gt;" style="edgeLabel;html=1;align=center;verticalAlign=middle;resizable=0;points=[];" vertex="1" connectable="0" parent="tdXhZO9hacQsB6wRN4kg-39">
          <mxGeometry x="0.2445" y="1" relative="1" as="geometry">
            <mxPoint as="offset" />
          </mxGeometry>
        </mxCell>
        <mxCell id="tdXhZO9hacQsB6wRN4kg-71" style="edgeStyle=orthogonalEdgeStyle;rounded=0;orthogonalLoop=1;jettySize=auto;html=1;exitX=1;exitY=0.5;exitDx=0;exitDy=0;entryX=0;entryY=0.5;entryDx=0;entryDy=0;" edge="1" parent="1" source="tdXhZO9hacQsB6wRN4kg-44" target="tdXhZO9hacQsB6wRN4kg-70">
          <mxGeometry relative="1" as="geometry" />
        </mxCell>
        <mxCell id="tdXhZO9hacQsB6wRN4kg-44" value="Asignar segundo enlace cuántico&lt;div&gt;Activar protocolo purificación&lt;/div&gt;" style="rounded=0;whiteSpace=wrap;html=1;fillColor=#dae8fc;strokeColor=none;" vertex="1" parent="1">
          <mxGeometry x="595" y="738" width="170" height="50" as="geometry" />
        </mxCell>
        <mxCell id="tdXhZO9hacQsB6wRN4kg-73" style="edgeStyle=orthogonalEdgeStyle;rounded=0;orthogonalLoop=1;jettySize=auto;html=1;exitX=1;exitY=0.5;exitDx=0;exitDy=0;entryX=1;entryY=0.5;entryDx=0;entryDy=0;" edge="1" parent="1" source="tdXhZO9hacQsB6wRN4kg-48" target="GbKh0f3Iw_0Q1egA7rOd-15">
          <mxGeometry relative="1" as="geometry" />
        </mxCell>
        <mxCell id="tdXhZO9hacQsB6wRN4kg-48" value="Actualizar protocolo con nuevo número de rondas" style="rounded=0;whiteSpace=wrap;html=1;fillColor=#dae8fc;strokeColor=none;" vertex="1" parent="1">
          <mxGeometry x="870" y="648" width="170" height="50" as="geometry" />
        </mxCell>
        <mxCell id="tdXhZO9hacQsB6wRN4kg-65" style="edgeStyle=orthogonalEdgeStyle;rounded=0;orthogonalLoop=1;jettySize=auto;html=1;exitX=1;exitY=0.5;exitDx=0;exitDy=0;" edge="1" parent="1" source="tdXhZO9hacQsB6wRN4kg-62" target="tdXhZO9hacQsB6wRN4kg-1">
          <mxGeometry relative="1" as="geometry" />
        </mxCell>
        <mxCell id="tdXhZO9hacQsB6wRN4kg-62" value="Marcar petición como rechazada" style="rounded=0;whiteSpace=wrap;html=1;fillColor=#dae8fc;strokeColor=none;" vertex="1" parent="1">
          <mxGeometry x="700" y="80" width="140" height="50" as="geometry" />
        </mxCell>
        <mxCell id="tdXhZO9hacQsB6wRN4kg-72" style="edgeStyle=orthogonalEdgeStyle;rounded=0;orthogonalLoop=1;jettySize=auto;html=1;exitX=0.5;exitY=0;exitDx=0;exitDy=0;entryX=0.5;entryY=1;entryDx=0;entryDy=0;" edge="1" parent="1" source="tdXhZO9hacQsB6wRN4kg-70" target="tdXhZO9hacQsB6wRN4kg-48">
          <mxGeometry relative="1" as="geometry" />
        </mxCell>
        <mxCell id="tdXhZO9hacQsB6wRN4kg-70" value="Incrementar rondas de purificación necesarias en 1" style="rounded=0;whiteSpace=wrap;html=1;fillColor=#dae8fc;strokeColor=none;" vertex="1" parent="1">
          <mxGeometry x="870" y="738" width="170" height="50" as="geometry" />
        </mxCell>
        <mxCell id="tdXhZO9hacQsB6wRN4kg-79" value="Solo la primera vez que se simula con purificación" style="text;html=1;align=center;verticalAlign=middle;whiteSpace=wrap;rounded=0;strokeColor=none;" vertex="1" parent="1">
          <mxGeometry x="345" y="643" width="170" height="30" as="geometry" />
        </mxCell>
        <mxCell id="tdXhZO9hacQsB6wRN4kg-80" value="" style="endArrow=classic;html=1;rounded=0;entryX=0.015;entryY=0.372;entryDx=0;entryDy=0;entryPerimeter=0;" edge="1" parent="1" source="tdXhZO9hacQsB6wRN4kg-79" target="tdXhZO9hacQsB6wRN4kg-78">
          <mxGeometry width="50" height="50" relative="1" as="geometry">
            <mxPoint x="570" y="728" as="sourcePoint" />
            <mxPoint x="620" y="678" as="targetPoint" />
          </mxGeometry>
        </mxCell>
      </root>
    </mxGraphModel>
  </diagram>
</mxfile>
